<svg xmlns="http://www.w3.org/2000/svg" height="512pt" version="1.1" viewBox="-55 0 512 512" width="512pt">
<g id="surface1">
<path d="M 231.34375 238.890625 L 329.851562 238.890625 L 329.851562 233.105469 L 292.675781 199.300781 Z M 231.34375 238.890625 " style=" stroke:none;fill-rule:nonzero;fill:rgb(0%,0%,0%);fill-opacity:1;" />
<path d="M 220.160156 175.566406 L 195.046875 192.609375 L 195.046875 226.21875 L 242.429688 195.636719 Z M 220.160156 175.566406 " style=" stroke:none;fill-rule:nonzero;fill:rgb(0%,0%,0%);fill-opacity:1;" />
<path d="M 53.144531 385.632812 C 69.023438 385.632812 83.722656 390.746094 95.707031 399.398438 L 95.707031 44.210938 C 93.808594 19.515625 73.121094 0 47.949219 0 C 39.160156 0 30.925781 2.390625 23.835938 6.535156 C 9.378906 17.34375 0 34.589844 0 53.988281 L 0 408.714844 C 13.308594 394.523438 32.203125 385.632812 53.144531 385.632812 Z M 53.144531 385.632812 " style=" stroke:none;fill-rule:nonzero;fill:rgb(0%,0%,0%);fill-opacity:1;" />
<path d="M 126.035156 443.355469 L 402.433594 443.355469 L 402.433594 38.273438 L 126.035156 38.273438 Z M 359.238281 400.472656 L 165.835938 400.472656 L 165.835938 370.144531 L 359.238281 370.144531 Z M 359.238281 335.769531 L 165.835938 335.769531 L 165.835938 305.441406 L 359.238281 305.441406 Z M 164.71875 81.988281 L 360.179688 81.988281 L 360.179688 269.21875 L 164.71875 269.21875 Z M 164.71875 81.988281 " style=" stroke:none;fill-rule:nonzero;fill:rgb(0%,0%,0%);fill-opacity:1;" />
<path d="M 95.703125 458.519531 C 95.703125 435.054688 76.613281 415.960938 53.144531 415.960938 C 29.675781 415.960938 10.582031 435.054688 10.582031 458.519531 C 10.582031 481.480469 25.132812 501.105469 45.492188 508.671875 C 48.960938 509.871094 52.558594 510.800781 56.257812 511.425781 C 58.808594 511.800781 61.410156 512 64.0625 512 L 369.167969 512 L 369.167969 473.6875 L 95.703125 473.6875 Z M 95.703125 458.519531 " style=" stroke:none;fill-rule:nonzero;fill:rgb(0%,0%,0%);fill-opacity:1;" />
<path d="M 195.046875 155.953125 L 222.804688 137.121094 L 268.828125 178.597656 L 295.824219 161.171875 L 329.851562 192.113281 L 329.851562 112.316406 L 195.046875 112.316406 Z M 272.578125 126.46875 C 281.078125 126.46875 287.375 133.414062 287.742188 141.632812 C 288.109375 149.820312 280.511719 156.796875 272.578125 156.796875 C 264.078125 156.796875 257.78125 149.847656 257.414062 141.632812 C 257.046875 133.441406 264.648438 126.46875 272.578125 126.46875 Z M 272.578125 126.46875 " style=" stroke:none;fill-rule:nonzero;fill:rgb(0%,0%,0%);fill-opacity:1;" />
</g>
</svg>